<svg id="Layer_1" data-name="Layer 1" xmlns="http://www.w3.org/2000/svg" width="4in" height="4in" viewBox="0 0 288 288"><defs><style>.cls-1{fill:none;stroke:#010101;stroke-linecap:round;stroke-miterlimit:10;stroke-width:1.5px;}.cls-2{fill:#010101;}.cls-3{font-size:8px;fill:#231f20;font-family:AauxNext-Bold, Aaux Next;font-weight:700;letter-spacing:1.24em;}.cls-4{letter-spacing:1.25em;}.cls-5{letter-spacing:1.22em;}.cls-6{letter-spacing:1.25em;}.cls-7{letter-spacing:1.24em;}.cls-8{letter-spacing:1.23em;}</style></defs><title>Etchedinoak</title><path class="cls-1" d="M40.3,131.31a7.76,7.76,0,0,0-3.58-.07,21.07,21.07,0,0,0-9.95,4.17c-2.9,2.32-5.59,5.79-4.68,9.73.85,3.62,4.83,4.64,8.08,4.81,0,0,12,0,16.38-10.79"/><path class="cls-1" d="M15.4,140s-5.84-8.07,2-14.4a18.44,18.44,0,0,1,11.48-3.87c5.58-.06,10.69,2.75,16.23,3.2a6.69,6.69,0,0,0,4.35-.78,2.47,2.47,0,0,0,1.13-1.74,2.38,2.38,0,0,0-1-1.94,5.86,5.86,0,0,0-2.74-1.18c-3.39-.5-7,1-9.88,2.76-2.53,1.52-5.12,4-4.3,7.29.75,3,5.12,2.39,7.28,2"/><path class="cls-1" d="M45.29,141.66s10.11-2.18,19.52-15"/><path class="cls-1" d="M47.07,133.68s6.11-4.86,13.73-2.19,15,1.59,19.33-3"/><path class="cls-1" d="M75.16,137.54a1.9,1.9,0,0,0-2-2.18,9,9,0,0,0-5.58,2s-8.3,7-12.48,5.78.86-7.11.86-7.11"/><path class="cls-1" d="M71.57,135.5a4.45,4.45,0,0,0-2.82,4.16c0,2.55,2.75,3.34,4.84,2.85a26.29,26.29,0,0,0,7-3.36,66,66,0,0,0,10.28-7.78l.84-.77s5.68-4.76,4.16-6.08-13,8.36-16.61,18.4c0,.06.06.1.09.05,1-1.29,5.41-6.74,9.32-5.69,0,0,1.19.13-1.59,3.24s1.06,2.95,4.5,1.14,9.91-4.77,9.38-7.48-7.66,3.17-5.68,6.6,8.2.53,8.2.53,3.22-1.8,4.69-2.77c2.08-1.39,4.81-3,7.59-1.84,0,0-4.72,6.55-6.93,4.41a2.3,2.3,0,0,1-.66-2.57"/><path class="cls-1" d="M123,126.45s-9.35,11-7.75,14.54,8.83-2,12.17-4.37"/><path class="cls-1" d="M132.55,138.82s5.36-.19,11.45-5"/><path class="cls-1" d="M140.76,136s-1.27,1.88,0,3.06,4.4,0,4.4,0a66,66,0,0,0,7.23-4s3.76-2.1,4.05,1.2"/><path class="cls-1" d="M153,139.59s5.52-5.41,9.82-4.48c0,0,1.17.68-1.22,2.39s-.24,4.84,5.18,1a66.18,66.18,0,0,0,5.47-4"/><circle class="cls-2" cx="146.22" cy="131.61" r="0.95"/><path class="cls-1" d="M202.69,121.42s-4.58-4.67-14.19-4.49c-5.13.1-10.21,1.6-13.24,6-2.25,3.31-1.48,6.95,2.19,8.63,2.88,1.31,6.37,1.11,9.44.77C200.53,130.84,206.1,122,206.1,122s4-5.12-1.71-6.29-13.73,4-17.77,10.24a23.52,23.52,0,0,0-3.15,6c-.9,2.92-1.17,7.25,1.53,9.35a10,10,0,0,0,7.1,1.68c4.21-.49,8-2.93,11.22-5.57,4.9-4,9.88-10.23,8.31-17-.65-2.81-3.62-5.84-10-4.84"/><path class="cls-1" d="M207.19,138c0,.21,9.24-3,10.9-.72,0,0,.46,1.83-4.72,3.1-5.57,1.36-3.5-2.53-.73-3.64"/><path class="cls-1" d="M216,139.47c-1.46,2.84,1.87,2.35,1.87,2.35s2.78.58,17.28-7.86c0,0,9.1-6,7.14-9.09-1.59-2.46-9.64,6.78-14.4,13.82a42.25,42.25,0,0,0-2.64,4.34"/><path class="cls-1" d="M233.51,134.93s3.55-.27,3.35,1.73c-.16,1.64-7.05,2.87-8.93,2"/><path class="cls-1" d="M242.61,137.69s-4.45,6.3-9.32,5.34c0,0-3-1.07-1.23-4.26"/><path d="M118.76,38.56c4.68-.13,9.4-.46,14.12-.33a86,86,0,0,1,12.19,1.18,128.58,128.58,0,0,1,12.85,3,84.51,84.51,0,0,1,21.17,8.76c3.44,2.06,6.72,4.39,10,6.69,6.91,4.83,12.71,10.87,18.17,17.23,2.19,2.54,3.85,5.51,5.79,8.27,5.29,7.51,8.8,15.88,12,24.43a6.22,6.22,0,0,1,.47,2.34c0,.55-.56,1.08-.86,1.62-.46-.43-1.16-.79-1.35-1.32-.87-2.47-1.43-5.06-2.42-7.47-1.74-4.24-3.58-8.44-5.63-12.54-1-2.07-2.79-3.77-3.92-5.81-3.88-7-9.34-12.58-15-18-1.71-1.66-3.77-3-5.58-4.51C182.45,54.94,173,50,162.82,46.21a99.87,99.87,0,0,0-11.77-3.12,96.28,96.28,0,0,0-22.89-2.49A101.69,101.69,0,0,0,104.38,44a77.71,77.71,0,0,0-16.84,6A107.07,107.07,0,0,0,65.07,65.09a100.83,100.83,0,0,0-17,19.69,91.22,91.22,0,0,0-9.58,19.53,3,3,0,0,1-1,1.41c-.36.24-1.34.27-1.43.09a3,3,0,0,1-.37-2,49.52,49.52,0,0,1,2.56-5.88c2.66-5.12,5.3-10.25,8.17-15.25a43.44,43.44,0,0,1,4.72-6.21c2.9-3.44,5.74-7,9-10.11,2.9-2.82,6.26-5.18,9.43-7.72a56.52,56.52,0,0,1,5.27-4c3.3-2,6.71-3.89,10.11-5.76A52,52,0,0,1,90.58,46C93.24,45,96,44,98.72,43.19c3.54-1.07,7.11-2.08,10.71-2.91C112.49,39.57,115.61,39.13,118.76,38.56Z"/><path d="M178.29,227.36h.11A.2.2,0,0,0,178.29,227.36Zm-1.47.3.87-.19Zm0,0a44.34,44.34,0,0,0-5.1,1.45C173.86,228.39,175.64,227.93,176.82,227.66Z"/><path d="M275.33,229.7l.27-.47c-.39.12-8.66,2.75-10,.86a1.54,1.54,0,0,1,.15-1.8c-1.85,1.23-6.48,4.67-8.52,4.24,0,0-.54-1.68,4.67-3.57l.12-.76a11.1,11.1,0,0,1-5.42.68c-2.52-.51-5.71,1.3-6.43,2.14s-3.28,1.47-4.45.63c0,0,1.21-2.06,2.81-2.31,0,0-1.55-1.64-6.64.46,0,0-6.39,3.91-9.12,2.15,0,0-1-1.69,1.18-3a5,5,0,0,0-3.91,1.26,4.67,4.67,0,0,1-6-.29s11.77-1.26,17.2-8.08a6.84,6.84,0,0,0,1.11-2.93,4.85,4.85,0,0,0-.24-2.56,4.6,4.6,0,0,0-1.86-2,5.84,5.84,0,0,0-2.87-.74,8.28,8.28,0,0,0-4.78.8c-1.32.73-2.38,1.83-2.25,3.4a2.39,2.39,0,0,0,2.34,2.39,2.69,2.69,0,0,0,2.93-2.74,2.62,2.62,0,0,0-.83-1.28s.46-1.08,2.77-.66,2.88,1.4,2.8,2.65-.57,3.17-3.37,4.84-4.63,3.25-11.48,4.31-10-.57-10-.57-15.4-5-29.52-3.2c0,0,2.64-2.6,8.69-3.57s15.51-4.62,20.81-8.95c0,0-3.42,5.53-13.74,8.32a27.74,27.74,0,0,1-5.27,1.26c-2.3.22-4.82,1.23-5.07,1.73,0,0,4.73-.05,6.67-.75s12.23-1.79,14.27,1.69c0,0,3.18-2.74,5-1a2.77,2.77,0,0,0-2.23-2c-1.79-.25-2.19-.7-2.19-.7s6.56-.1,9.5-1.64,4.87-.2,4.87-.2-2.14-3.31,2.44-3.38c-2.54-.08-2.92-1.21-2.92-1.21-2-2,7.44-7.63,7.44-7.63a6.94,6.94,0,0,0-1.51-1.13,4.36,4.36,0,0,0,1.69-2.38c-.09.11-.58.69-1.95.29s4.36-4.79,4.36-4.79c-.88.06-1.83.19-1.83.19-1.89-.32.76-4.42.76-4.42l.69-1.84c-5.19,6.12-5.18.57-5.18.57a5.47,5.47,0,0,0-1.76,2c-1.64,4.3-4.61,3.54-4.61,3.54a18.8,18.8,0,0,0,.63-3.54,14,14,0,0,1-4.48,3.22c-.13-.94-1.39-1.2-1.39-1.2-.44,5.12-3.53,5.43-3.53,5.43a15.12,15.12,0,0,0,1.26-2.4,4.42,4.42,0,0,1-1.39.13c-1.07,0-.32-2.84-.32-2.84-2.14,3.28-2.84,1.26-2.84,1.26,0,1.14-.44,1.2-.44,1.2-.06-1.45-1.77-2.46-1.77-2.46s-3.21,6.88-5.42,8.84-1-1.58-1-1.82a1.85,1.85,0,0,0-1.38,1.37c-1,3.41-2.78,1.08-2.78,1.08s.19,7.19-4.1,9.72-11.65,4.92-14.62,7.76c0,0-11.07,2.84-15.44,5.27l-.29.11a97.91,97.91,0,0,1-9.81,3.49c-10.37,2.58-20.92,4.24-31.64,3.6a106.75,106.75,0,0,1-16.83-2.17,90.5,90.5,0,0,1-30.67-13.21,87.2,87.2,0,0,1-14.44-11.41,152.06,152.06,0,0,1-12.11-14.12c-5.1-6.73-8.62-14.25-11.6-22.07-.59-1.55-.89-3.2-1.52-4.72-.25-.6-1.05-1.43-1.54-1.39-1.12.08-1.09,1.1-.88,2a18.23,18.23,0,0,0,.54,2.35,103,103,0,0,0,31.06,44.07,113.92,113.92,0,0,0,19.48,12.67,79.35,79.35,0,0,0,20.17,7.26A125.41,125.41,0,0,0,127.9,238c7,.24,14-.67,20.95-1.66A56,56,0,0,0,164.59,232c2.2-1,4.42-2,6.7-2.77l.43-.15a43.54,43.54,0,0,1,6-1.64l.35-.07a.57.57,0,0,1,.18,0h.07a.2.2,0,0,1,.11,0c.56-.07,5.64-.56,7.18,5.61,0,0,9.33,1.71,7.85,19.9a3.06,3.06,0,0,0,.69,2.26s.69-2.92,2-1.32a15.57,15.57,0,0,1,1.66,2.19,4.39,4.39,0,0,0-.2-2.95c-.7-1.43.79-2.12,1.84-1.36a3,3,0,0,0-1-1.81c-.9-.83-1-2.88-.13-3.16s2.29,1.08,3.43,5.11l1.15,4s.94-2.64,2.64.14,2,3.44,2,3.44a5.88,5.88,0,0,0,0-2c-.21-.66-.41-1.39.09-1.74a2,2,0,0,1,2.37,1,2.66,2.66,0,0,0-.27-2.22c-.7-1.22-2-3.93-.18-4.48s3.16,4.72,3.16,4.72a18.47,18.47,0,0,0,5.56,7.3s-.8-3.89,3.47-2.57c0,0,2.09.62,2.95.1,0,0-3.61-1.95-2.46-2.92s3.23-.62,3.23-.62,3.89.73,6.49-.42a23.09,23.09,0,0,1,4-.24s1.28-.77-.21-.94-4.62-1.42-3.3-2a6.06,6.06,0,0,1,1.63-.56,4.41,4.41,0,0,0-3.44-.79c-2,.38-4.82-1.53-4.82-3.27s4.41-.07,4.41-.07,1.38.18,1.59-.35a7.8,7.8,0,0,1-4.29-3.24c-1.26-2.37-5.72-4.31-7.75-4.22s-2.33-1-2.33-1,1.58-1.76,4.17.29c0,0,1.45-2,5-.49,0,0-.15-.82-1.79-1.5s-3.49-1.94-1.7-3.24c0,0-2.47,0-3.05-.54a9.28,9.28,0,0,0-7.17-.58c-3,1.16-3.45-1.81-1.05-1.72s3-.09,3.23-.23a5.12,5.12,0,0,1-2.49-1.15c-1.38-1.08-4.44-1.94-8.08-.83a2.88,2.88,0,0,1-3-.83s1-.88,3.67-.77c0,0-4.83-.93-6.89-1.09a18.07,18.07,0,0,0-4.76.49,14.52,14.52,0,0,1-3.75.17,1.22,1.22,0,0,0,.88.49c.64.09,8.39.83,19.32,13.63,0,0,2.75,3.67,4.82,4.92,0,0-2.13-.16-5.39-3.68s-7.67-9.17-14.66-12.49a36.39,36.39,0,0,0-9.43-2.69,8.38,8.38,0,0,0-2.39-.87s12.6-2.93,29.38,1.83a87.64,87.64,0,0,1,12.24,4.85s12.1,6.87,14.94,7.27,4.88,1.3,8.71,2.54,5.48-.69,5.48-.69a4.61,4.61,0,0,0-2.11-.34s.19-1.44,2.79-.5,9.65-.9,10.27-2.34a5.37,5.37,0,0,0-3-.16s2-1.74,6-1.11c0,0,1.22-.05,1.41-1a7.21,7.21,0,0,0-2.26-.27C267,236.16,267,232.14,275.33,229.7Zm-31.34,9a3.08,3.08,0,0,0-2.11-.53,18.47,18.47,0,0,1-10.43-3.65c.42.21,7.41,3.61,14.27,3.48,7.09-.14,7.91-.56,12.85-1.88C254.57,238.79,245,239.58,244,238.74Z"/><path d="M179.27,205.91s.09,2.06.45,2.33-.09,2.16,1.44,1.71a2,2,0,0,0,1.44-2s-.27-1.88,0-2.05.54.62,1.08-.81,1.34-1.53,1.34-1.53-1.43,2.87,0,2.6a3.1,3.1,0,0,0,2.43-2.24c.36-1,.17,1,.91.9s.74-.46,2.08-.6c0,0-3.79,2.17-1.39,2.13,0,0-4.57,2.26-2.9,2.9s3.32-.5,5.12-.32a8.44,8.44,0,0,0-2.91,1.62s-1.15.69-1.34,1.24c0,0-3.18-1-4,.65s1.76.78,3.7,1.47,1.38,1.3,2.26,1.3c0,0-4.48-.28-4,1.2,0,0-3.09-1.2-4.66-.28,0,0-1.29,1.38.83,1.52,0,0,.83.42,1.71-.88,0,0,.13.82.13.94a3.35,3.35,0,0,0,1.85-.7,3,3,0,0,0-.65,1.8s-1.8-.19-1.75,1.33c0,0-3.74-1.47-5.26,0,0,0-2.49-1.75-3-3.46l.83.06a1.38,1.38,0,0,1,.87.46,2.31,2.31,0,0,0,.2.24.29.29,0,0,0,.29.07c.31-.12.35-.69.3-1a2.74,2.74,0,0,0-.48-1,4.77,4.77,0,0,0-1.64-1.61,2.5,2.5,0,0,0-.62-2.48s1.27,1.22,1.69.42c0,0,1.37,3.25,2.51,2.36s-.19-4.07-1.23-4.28c0,0,1.51-.48,1-1.61a1.49,1.49,0,0,0-.54-.38S179.17,206.81,179.27,205.91Z"/><path d="M176.4,245.34s-1.15-1.28-1.09-1.65-1.31-1.23-.14-1.85a1.66,1.66,0,0,1,2,.34s.93,1.27,1.2,1.22,0-.69,1.11-.15,1.69.13,1.69.13-2.53-.87-1.52-1.55a2.58,2.58,0,0,1,2.75-.08c.79.38-.48-.69,0-1.07s.71-.15,1.59-.85c0,0-3.52.91-2.06-.46,0,0-4,1.32-3.42,0s2.27-1.63,3.23-2.79a7,7,0,0,1-2.67.73,3.23,3.23,0,0,1-1.52,0s-1.3,2.46-2.73,1.93.58-1.49,1.33-3,.07-1.57.59-2.08c0,0-2.5,2.77-3.06,1.6,0,0-1.14,2.51-2.6,2.88,0,0-1.58-.07-.4-1.39,0,0,.25-.73,1.53-.47,0,0-.4-.57-.47-.64a2.81,2.81,0,0,1,1.51-.66,2.4,2.4,0,0,1-1.43-.69s-1,1.16-1.82.23c0,0-1.36,3.05-3.13,3.06,0,0-.46,2.5.24,3.81l.46-.53a1.13,1.13,0,0,0,.25-.77,1.18,1.18,0,0,1,0-.26.27.27,0,0,1,.13-.22c.25-.1.6.22.73.4a2.22,2.22,0,0,1,.32.89,4,4,0,0,1,0,1.91,2.1,2.1,0,0,1,1.08,1.84s0-1.46.76-1.23c0,0-1.08-2.73.11-2.87s2.26,2.53,1.77,3.26c0,0,1.18-.59,1.55.36a1.26,1.26,0,0,1-.1.53S175.81,244.87,176.4,245.34Z"/><text class="cls-3" transform="translate(45.29 160.34) scale(1.12 1)">P<tspan class="cls-4" x="14.85" y="0">H</tspan><tspan class="cls-5" x="30.21" y="0">OT</tspan><tspan class="cls-6" x="59.7" y="0">OGRA</tspan><tspan class="cls-7" x="120.26" y="0">P</tspan><tspan class="cls-8" x="135.11" y="0">H</tspan><tspan class="cls-4" x="150.31" y="0">Y</tspan></text></svg>